<svg xmlns="http://www.w3.org/2000/svg" width="918" height="163" viewBox="0 0 918 163" role="img" aria-label="GitHub Trophies">
  <title>GitHub Trophies</title>
  <desc>GitHub achievement trophies for chamika-u</desc>
  <rect width="918" height="163" rx="8" fill="#0d1117"/>
  <g transform="translate(14,14)">
    <rect width="140" height="135" rx="8" fill="#161b22" stroke="#ce93d8" stroke-width="1.5" stroke-opacity="0.7"/>
    <svg x="50" y="8" width="40" height="40" viewBox="0 0 40 40">
      <path d="M8 4h24v10c0 5.5-4.5 10-10 10S12 19.5 12 14V4zM4 6h4v6c0 1.1.9 2 2 2v2c0 .7.1 1.4.2 2H9C7.3 21 6 22.3 6 24h28c0-1.7-1.3-3-3-3h-1.2c.1-.6.2-1.3.2-2v-2c1.1 0 2-.9 2-2V6h4v2c0 2.2-1.8 4-4 4v2c0 6.1-4.9 11-11 11S10 20.1 10 14v-2C7.8 12 6 10.2 6 8V6z" fill="#ce93d8" fill-opacity="0.85"/>
    </svg>
    <text x="70" y="60" text-anchor="middle" font-family="'Segoe UI',Ubuntu,sans-serif" font-size="10" fill="#8b949e">Repositories</text>
    <text x="70" y="88" text-anchor="middle" font-family="'Segoe UI',Ubuntu,sans-serif" font-size="22" font-weight="700" fill="#ce93d8">19</text>
    <rect x="40" y="98" width="60" height="22" rx="5" fill="#ce93d8" fill-opacity="0.18" stroke="#ce93d8" stroke-width="1" stroke-opacity="0.5"/>
    <text x="70" y="114" text-anchor="middle" font-family="'Segoe UI',Ubuntu,monospace" font-size="12" font-weight="700" fill="#ce93d8">AAA</text>
  </g>
<g transform="translate(164,14)">
    <rect width="140" height="135" rx="8" fill="#161b22" stroke="#ff7043" stroke-width="1.5" stroke-opacity="0.7"/>
    <svg x="50" y="8" width="40" height="40" viewBox="0 0 40 40">
      <path d="M8 4h24v10c0 5.5-4.5 10-10 10S12 19.5 12 14V4zM4 6h4v6c0 1.1.9 2 2 2v2c0 .7.1 1.4.2 2H9C7.3 21 6 22.3 6 24h28c0-1.7-1.3-3-3-3h-1.2c.1-.6.2-1.3.2-2v-2c1.1 0 2-.9 2-2V6h4v2c0 2.2-1.8 4-4 4v2c0 6.1-4.9 11-11 11S10 20.1 10 14v-2C7.8 12 6 10.2 6 8V6z" fill="#ff7043" fill-opacity="0.85"/>
    </svg>
    <text x="70" y="60" text-anchor="middle" font-family="'Segoe UI',Ubuntu,sans-serif" font-size="10" fill="#8b949e">Commits</text>
    <text x="70" y="88" text-anchor="middle" font-family="'Segoe UI',Ubuntu,sans-serif" font-size="22" font-weight="700" fill="#ff7043">694</text>
    <rect x="40" y="98" width="60" height="22" rx="5" fill="#ff7043" fill-opacity="0.18" stroke="#ff7043" stroke-width="1" stroke-opacity="0.5"/>
    <text x="70" y="114" text-anchor="middle" font-family="'Segoe UI',Ubuntu,monospace" font-size="12" font-weight="700" fill="#ff7043">S</text>
  </g>
<g transform="translate(314,14)">
    <rect width="140" height="135" rx="8" fill="#161b22" stroke="#8b949e" stroke-width="1.5" stroke-opacity="0.7"/>
    <svg x="50" y="8" width="40" height="40" viewBox="0 0 40 40">
      <path d="M8 4h24v10c0 5.5-4.5 10-10 10S12 19.5 12 14V4zM4 6h4v6c0 1.1.9 2 2 2v2c0 .7.1 1.4.2 2H9C7.3 21 6 22.3 6 24h28c0-1.7-1.3-3-3-3h-1.2c.1-.6.2-1.3.2-2v-2c1.1 0 2-.9 2-2V6h4v2c0 2.2-1.8 4-4 4v2c0 6.1-4.9 11-11 11S10 20.1 10 14v-2C7.8 12 6 10.2 6 8V6z" fill="#8b949e" fill-opacity="0.85"/>
    </svg>
    <text x="70" y="60" text-anchor="middle" font-family="'Segoe UI',Ubuntu,sans-serif" font-size="10" fill="#8b949e">Stars</text>
    <text x="70" y="88" text-anchor="middle" font-family="'Segoe UI',Ubuntu,sans-serif" font-size="22" font-weight="700" fill="#8b949e">2</text>
    <rect x="40" y="98" width="60" height="22" rx="5" fill="#8b949e" fill-opacity="0.18" stroke="#8b949e" stroke-width="1" stroke-opacity="0.5"/>
    <text x="70" y="114" text-anchor="middle" font-family="'Segoe UI',Ubuntu,monospace" font-size="12" font-weight="700" fill="#8b949e">B</text>
  </g>
<g transform="translate(464,14)">
    <rect width="140" height="135" rx="8" fill="#161b22" stroke="#ce93d8" stroke-width="1.5" stroke-opacity="0.7"/>
    <svg x="50" y="8" width="40" height="40" viewBox="0 0 40 40">
      <path d="M8 4h24v10c0 5.5-4.5 10-10 10S12 19.5 12 14V4zM4 6h4v6c0 1.1.9 2 2 2v2c0 .7.1 1.4.2 2H9C7.3 21 6 22.3 6 24h28c0-1.7-1.3-3-3-3h-1.2c.1-.6.2-1.3.2-2v-2c1.1 0 2-.9 2-2V6h4v2c0 2.2-1.8 4-4 4v2c0 6.1-4.9 11-11 11S10 20.1 10 14v-2C7.8 12 6 10.2 6 8V6z" fill="#ce93d8" fill-opacity="0.85"/>
    </svg>
    <text x="70" y="60" text-anchor="middle" font-family="'Segoe UI',Ubuntu,sans-serif" font-size="10" fill="#8b949e">Followers</text>
    <text x="70" y="88" text-anchor="middle" font-family="'Segoe UI',Ubuntu,sans-serif" font-size="22" font-weight="700" fill="#ce93d8">22</text>
    <rect x="40" y="98" width="60" height="22" rx="5" fill="#ce93d8" fill-opacity="0.18" stroke="#ce93d8" stroke-width="1" stroke-opacity="0.5"/>
    <text x="70" y="114" text-anchor="middle" font-family="'Segoe UI',Ubuntu,monospace" font-size="12" font-weight="700" fill="#ce93d8">AAA</text>
  </g>
<g transform="translate(614,14)">
    <rect width="140" height="135" rx="8" fill="#161b22" stroke="#8b949e" stroke-width="1.5" stroke-opacity="0.7"/>
    <svg x="50" y="8" width="40" height="40" viewBox="0 0 40 40">
      <path d="M8 4h24v10c0 5.5-4.5 10-10 10S12 19.5 12 14V4zM4 6h4v6c0 1.1.9 2 2 2v2c0 .7.1 1.4.2 2H9C7.3 21 6 22.3 6 24h28c0-1.7-1.3-3-3-3h-1.2c.1-.6.2-1.3.2-2v-2c1.1 0 2-.9 2-2V6h4v2c0 2.2-1.8 4-4 4v2c0 6.1-4.9 11-11 11S10 20.1 10 14v-2C7.8 12 6 10.2 6 8V6z" fill="#8b949e" fill-opacity="0.85"/>
    </svg>
    <text x="70" y="60" text-anchor="middle" font-family="'Segoe UI',Ubuntu,sans-serif" font-size="10" fill="#8b949e">Pull Requests</text>
    <text x="70" y="88" text-anchor="middle" font-family="'Segoe UI',Ubuntu,sans-serif" font-size="22" font-weight="700" fill="#8b949e">7</text>
    <rect x="40" y="98" width="60" height="22" rx="5" fill="#8b949e" fill-opacity="0.18" stroke="#8b949e" stroke-width="1" stroke-opacity="0.5"/>
    <text x="70" y="114" text-anchor="middle" font-family="'Segoe UI',Ubuntu,monospace" font-size="12" font-weight="700" fill="#8b949e">B</text>
  </g>
<g transform="translate(764,14)">
    <rect width="140" height="135" rx="8" fill="#161b22" stroke="#26a69a" stroke-width="1.5" stroke-opacity="0.7"/>
    <svg x="50" y="8" width="40" height="40" viewBox="0 0 40 40">
      <path d="M8 4h24v10c0 5.5-4.5 10-10 10S12 19.5 12 14V4zM4 6h4v6c0 1.1.9 2 2 2v2c0 .7.1 1.4.2 2H9C7.3 21 6 22.3 6 24h28c0-1.7-1.3-3-3-3h-1.2c.1-.6.2-1.3.2-2v-2c1.1 0 2-.9 2-2V6h4v2c0 2.2-1.8 4-4 4v2c0 6.1-4.9 11-11 11S10 20.1 10 14v-2C7.8 12 6 10.2 6 8V6z" fill="#26a69a" fill-opacity="0.85"/>
    </svg>
    <text x="70" y="60" text-anchor="middle" font-family="'Segoe UI',Ubuntu,sans-serif" font-size="10" fill="#8b949e">Issues</text>
    <text x="70" y="88" text-anchor="middle" font-family="'Segoe UI',Ubuntu,sans-serif" font-size="22" font-weight="700" fill="#26a69a">20</text>
    <rect x="40" y="98" width="60" height="22" rx="5" fill="#26a69a" fill-opacity="0.18" stroke="#26a69a" stroke-width="1" stroke-opacity="0.5"/>
    <text x="70" y="114" text-anchor="middle" font-family="'Segoe UI',Ubuntu,monospace" font-size="12" font-weight="700" fill="#26a69a">A</text>
  </g>
</svg>
